HIERARCHY
ROOT Pelvis
{
	OFFSET 0.000000 0.000000 0.000000
	CHANNELS 6 Xposition Yposition Zposition Xrotation Yrotation Zrotation
	JOINT LeftUpLeg_virtual
	{
		OFFSET 0.000000 0.000000 0.000000
		CHANNELS 3 Xrotation Yrotation Zrotation
		JOINT LeftUpLeg
		{
			OFFSET 18.735201 -5.666702 -4.541200
			CHANNELS 3 Xrotation Yrotation Zrotation
			JOINT LeftLeg
			{
				OFFSET -0.021200 -31.938179 0.493100
				CHANNELS 3 Xrotation Yrotation Zrotation
				JOINT LeftFoot
				{
					OFFSET 0.021200 -31.938179 -4.336299
					CHANNELS 3 Xrotation Yrotation Zrotation
					JOINT LeftToeBase
					{
						OFFSET 0.943001 -26.722000 15.023500
						CHANNELS 3 Xrotation Yrotation Zrotation
						End Site
						{
							OFFSET 0 0 0
						}
					}
				}
			}
		}
	}
	JOINT RightUpLeg_virtual
	{
		OFFSET 0.000000 0.000000 0.000000
		CHANNELS 3 Xrotation Yrotation Zrotation
		JOINT RightUpLeg
		{
			OFFSET -18.735201 -5.666702 -4.541200
			CHANNELS 3 Xrotation Yrotation Zrotation
			JOINT RightLeg
			{
				OFFSET 0.018946 -31.938133 0.493100
				CHANNELS 3 Xrotation Yrotation Zrotation
				JOINT RightFoot
				{
					OFFSET -0.018946 -31.938126 -4.336299
					CHANNELS 3 Xrotation Yrotation Zrotation
					JOINT RightToeBase
					{
						OFFSET -0.943001 -26.722004 15.023500
						CHANNELS 3 Xrotation Yrotation Zrotation
						End Site
						{
							OFFSET 0 0 0
						}
					}
				}
			}
		}
	}
	JOINT Hips_virtual
	{
		OFFSET 0.000000 0.000000 0.000000
		CHANNELS 3 Xrotation Yrotation Zrotation
		JOINT Hips
		{
			OFFSET -0.000000 -0.000000 -0.000000
			CHANNELS 3 Xrotation Yrotation Zrotation
			JOINT Spine
			{
				OFFSET 0.000000 10.199997 -0.299500
				CHANNELS 3 Xrotation Yrotation Zrotation
				JOINT Spine1
				{
					OFFSET 0.000000 11.900002 -1.516600
					CHANNELS 3 Xrotation Yrotation Zrotation
					JOINT Spine2
					{
						OFFSET 0.000000 13.600006 -2.842500
						CHANNELS 3 Xrotation Yrotation Zrotation
						JOINT Neck_virtual
						{
							OFFSET 0.000000 0.000000 0.000000
							CHANNELS 3 Xrotation Yrotation Zrotation
							JOINT Neck
							{
								OFFSET 0.000000 9.624100 -2.890100
								CHANNELS 3 Xrotation Yrotation Zrotation
								JOINT Head
								{
									OFFSET 0.000000 14.068802 -1.351900
									CHANNELS 3 Xrotation Yrotation Zrotation
									End Site
									{
										OFFSET 0 0 0
									}
								}
							}
						}
						JOINT LeftShoulder_virtual
						{
							OFFSET 0.000000 0.000000 0.000000
							CHANNELS 3 Xrotation Yrotation Zrotation
							JOINT LeftShoulder
							{
								OFFSET 15.263000 10.923401 -0.547700
								CHANNELS 3 Xrotation Yrotation Zrotation
								JOINT LeftArm
								{
									OFFSET 25.438599 -2.830597 -13.032500
									CHANNELS 3 Xrotation Yrotation Zrotation
									JOINT LeftForeArm
									{
										OFFSET 29.960503 0.000000 0.000000
										CHANNELS 3 Xrotation Yrotation Zrotation
										JOINT LeftHand
										{
											OFFSET 27.849251 0.000000 0.000000
											CHANNELS 3 Xrotation Yrotation Zrotation
											End Site
											{
												OFFSET 0 0 0
											}
										}
									}
								}
							}
						}
						JOINT RightShoulder_virtual
						{
							OFFSET 0.000000 0.000000 0.000000
							CHANNELS 3 Xrotation Yrotation Zrotation
							JOINT RightShoulder
							{
								OFFSET -15.263000 10.923401 -0.547700
								CHANNELS 3 Xrotation Yrotation Zrotation
								JOINT RightArm
								{
									OFFSET -25.438599 -2.830597 -13.032500
									CHANNELS 3 Xrotation Yrotation Zrotation
									JOINT RightForeArm
									{
										OFFSET -29.960503 0.000000 0.000000
										CHANNELS 3 Xrotation Yrotation Zrotation
										JOINT RightHand
										{
											OFFSET -27.849251 0.000000 0.000000
											CHANNELS 3 Xrotation Yrotation Zrotation
											End Site
											{
												OFFSET 0 0 0
											}
										}
									}
								}
							}
						}
					}
				}
			}
		}
	}
}
MOTION
Frames: 9
Frame Time: 0.03333333
-6.833743 -8.138657 29.588078 0.000000 0.000000 0.000000 86.449581 13.908074 5.918982 -7.516404 28.977822 4.735970 20.604374 -18.417327 1.488334 39.880795 26.318718 12.863485 0.000000 0.000000 0.000000 86.995846 14.085565 5.251412 -0.912889 -0.866895 -23.275488 13.954166 -31.682365 8.084265 56.984709 7.615488 14.989023 0.000000 0.000000 0.000000 84.817576 14.307791 6.940698 -0.767732 -0.294265 -0.016242 7.062493 -15.088735 -2.520541 -0.006407 -2.472241 1.651130 0.000000 0.000000 0.000000 -1.952747 -0.143383 0.117892 7.248257 -6.520801 2.881767 0.000000 0.000000 0.000000 -0.051956 -0.216869 3.090277 0.415234 -20.845425 -6.795823 18.553528 -12.123615 -50.150555 -0.858914 -45.188801 -17.635511 0.000000 0.000000 0.000000 -0.331709 0.036458 0.023601 -9.901992 22.326020 4.757293 26.404492 -32.256627 70.779037 12.304216 67.315414 -7.247505 0.000000 0.000000 0.000000 
-6.837719 -8.137405 29.589357 0.000000 0.000000 0.000000 86.452880 13.910597 5.918310 -7.526245 28.982221 4.741428 20.609691 -18.406571 1.485668 39.889681 26.325304 12.862932 0.000000 0.000000 0.000000 86.998380 14.087097 5.250795 -0.912161 -0.875327 -23.266602 13.955781 -31.690374 8.084161 56.980597 7.606500 14.982776 0.000000 0.000000 0.000000 84.818553 14.304001 6.946661 -0.767914 -0.294688 -0.016187 7.056950 -15.091059 -2.510819 -0.001743 -2.472014 1.650776 0.000000 0.000000 0.000000 -1.965793 -0.143484 0.116192 7.250342 -6.520494 2.882272 0.000000 0.000000 0.000000 -0.053971 -0.216525 3.098709 0.417428 -20.862183 -6.781180 18.528551 -12.129869 -50.155507 -0.867654 -45.168758 -17.634650 0.000000 0.000000 0.000000 -0.305688 0.035657 0.016511 -9.910388 22.318647 4.746367 26.373425 -32.261767 70.735864 12.269374 67.298913 -7.208269 0.000000 0.000000 0.000000 
-6.844482 -8.135674 29.586172 0.000000 0.000000 0.000000 86.454356 13.917486 5.920239 -7.548349 28.983221 4.750304 20.619644 -18.384293 1.479827 39.894213 26.329934 12.859490 0.000000 0.000000 0.000000 86.999002 14.093143 5.253627 -0.902548 -0.874827 -23.263322 13.954126 -31.702309 8.083722 56.980426 7.612153 14.989065 0.000000 0.000000 0.000000 84.815479 14.307030 6.954944 -0.768174 -0.295801 -0.016023 7.058598 -15.094382 -2.495621 0.008562 -2.472767 1.650941 0.000000 0.000000 0.000000 -1.977939 -0.144425 0.116827 7.254940 -6.518411 2.883412 0.000000 0.000000 0.000000 -0.049637 -0.216138 3.112289 0.420496 -20.894076 -6.766017 18.486764 -12.124829 -50.173829 -0.871149 -45.138972 -17.622933 0.000000 0.000000 0.000000 -0.279367 0.034046 0.012170 -9.923317 22.316574 4.747550 26.342735 -32.299415 70.679986 12.210532 67.293968 -7.144508 0.000000 0.000000 0.000000 
-6.854407 -8.134987 29.579594 0.000000 0.000000 0.000000 86.455496 13.929143 5.924101 -7.583412 28.980373 4.764754 20.633556 -18.351754 1.471158 39.905080 26.330427 12.848136 0.000000 0.000000 0.000000 86.997861 14.103788 5.259295 -0.893445 -0.865214 -23.267909 13.966396 -31.714457 8.092240 56.994855 7.638077 15.006069 0.000000 0.000000 0.000000 84.810083 14.317676 6.961507 -0.768352 -0.297385 -0.015536 7.070414 -15.100715 -2.476341 0.021660 -2.474754 1.651350 0.000000 0.000000 0.000000 -1.987000 -0.146773 0.119005 7.261598 -6.514701 2.885583 0.000000 0.000000 0.000000 -0.039018 -0.216927 3.128160 0.424003 -20.938975 -6.751631 18.428709 -12.111536 -50.205514 -0.870768 -45.112286 -17.606090 0.000000 0.000000 0.000000 -0.253517 0.030788 0.011980 -9.939102 22.316352 4.757720 26.319979 -32.372460 70.621998 12.134523 67.309233 -7.063981 0.000000 0.000000 0.000000 
-6.867241 -8.135475 29.573593 0.000000 0.000000 0.000000 86.456418 13.945755 5.928655 -7.634642 28.974673 4.788194 20.657982 -18.308302 1.460936 39.930106 26.329770 12.827371 0.000000 0.000000 0.000000 86.995293 14.120036 5.266200 -0.893295 -0.848511 -23.280662 14.011110 -31.727151 8.117417 57.020519 7.675179 15.023703 0.000000 0.000000 0.000000 84.804059 14.336080 6.964204 -0.768710 -0.299314 -0.014821 7.092042 -15.112804 -2.455212 0.034538 -2.478846 1.652816 0.000000 0.000000 0.000000 -1.991774 -0.151730 0.121987 7.267762 -6.509862 2.889409 0.000000 0.000000 0.000000 -0.024764 -0.219791 3.143382 0.426949 -20.993464 -6.739917 18.358763 -12.088790 -50.246591 -0.870207 -45.098124 -17.590160 0.000000 0.000000 0.000000 -0.229488 0.025185 0.015202 -9.957029 22.310596 4.770183 26.311400 -32.482457 70.564337 12.049916 67.351539 -6.974243 0.000000 0.000000 0.000000 
-6.883094 -8.138710 29.567518 0.000000 0.000000 0.000000 86.456521 13.967231 5.934315 -7.705118 28.965535 4.822758 20.700587 -18.253457 1.450715 39.958669 26.329187 12.800287 0.000000 0.000000 0.000000 86.991933 14.142228 5.273746 -0.900736 -0.825236 -23.297439 14.089134 -31.743393 8.159089 57.039139 7.711764 15.034114 0.000000 0.000000 0.000000 84.799087 14.362443 6.963960 -0.769256 -0.301440 -0.014706 7.121539 -15.132016 -2.436477 0.044704 -2.485339 1.655959 0.000000 0.000000 0.000000 -1.992122 -0.159687 0.124713 7.271520 -6.503858 2.895625 0.000000 0.000000 0.000000 -0.011143 -0.225213 3.155458 0.430162 -21.053063 -6.727683 18.287077 -12.057952 -50.290317 -0.869061 -45.098213 -17.577965 0.000000 0.000000 0.000000 -0.207787 0.017180 0.021044 -9.975251 22.294574 4.777981 26.324193 -32.627052 70.508938 11.971325 67.428912 -6.887847 0.000000 0.000000 0.000000 
-6.898337 -8.144348 29.562208 0.000000 0.000000 0.000000 86.455264 13.992267 5.943521 -7.789042 28.947144 4.864900 20.758591 -18.191094 1.442460 39.974683 26.322784 12.767797 0.000000 0.000000 0.000000 86.988825 14.168732 5.284460 -0.913919 -0.793279 -23.318450 14.185869 -31.763327 8.208463 57.032896 7.745907 15.038256 0.000000 0.000000 0.000000 84.796450 14.396227 6.964338 -0.770083 -0.303316 -0.014775 7.153862 -15.158188 -2.421809 0.050822 -2.492917 1.661796 0.000000 0.000000 0.000000 -1.987532 -0.168925 0.128488 7.273409 -6.496867 2.905023 0.000000 0.000000 0.000000 0.001370 -0.231822 3.163890 0.435025 -21.113686 -6.712255 18.223472 -12.026449 -50.334652 -0.870063 -45.110753 -17.575586 0.000000 0.000000 0.000000 -0.189158 0.008417 0.029265 -9.991104 22.265602 4.771922 26.352328 -32.789375 70.458879 11.901434 67.530080 -6.810304 0.000000 0.000000 0.000000 
-6.910237 -8.152390 29.558607 0.000000 0.000000 0.000000 86.453085 14.020482 5.959318 -7.877168 28.916063 4.909804 20.821135 -18.126052 1.435056 39.981229 26.303820 12.723021 0.000000 0.000000 0.000000 86.985075 14.198136 5.302158 -0.932355 -0.751119 -23.348491 14.290269 -31.784026 8.258219 57.000193 7.783162 15.038996 0.000000 0.000000 0.000000 84.796348 14.435127 6.972028 -0.770582 -0.304874 -0.014765 7.183041 -15.190342 -2.410425 0.051801 -2.500331 1.672051 0.000000 0.000000 0.000000 -1.977189 -0.177053 0.134484 7.274190 -6.488923 2.918229 0.000000 0.000000 0.000000 0.012273 -0.237349 3.169392 0.441596 -21.172371 -6.696658 18.169922 -12.001207 -50.380240 -0.875841 -45.130878 -17.588828 0.000000 0.000000 0.000000 -0.175609 0.001520 0.041021 -10.003738 22.225453 4.754118 26.382623 -32.942002 70.420541 11.840556 67.629589 -6.745033 0.000000 0.000000 0.000000 
-6.916913 -8.162323 29.556557 0.000000 0.000000 0.000000 86.451200 14.052494 5.983618 -7.965765 28.876961 4.954466 20.881041 -18.059114 1.426466 39.990273 26.274657 12.660338 0.000000 0.000000 0.000000 86.980369 14.231587 5.328038 -0.961302 -0.703889 -23.394305 14.402682 -31.803697 8.308662 56.953150 7.827469 15.038065 0.000000 0.000000 0.000000 84.798909 14.479460 6.990181 -0.770907 -0.306294 -0.014783 7.201985 -15.228593 -2.402191 0.048333 -2.504882 1.686655 0.000000 0.000000 0.000000 -1.962353 -0.180897 0.144489 7.276526 -6.479570 2.934959 0.000000 0.000000 0.000000 0.019087 -0.239185 3.173735 0.452027 -21.232160 -6.684776 18.112955 -11.981755 -50.433748 -0.881690 -45.151611 -17.616610 0.000000 0.000000 0.000000 -0.170756 -0.001026 0.057555 -10.012829 22.177988 4.728997 26.398857 -33.064693 70.404128 11.780551 67.699162 -6.686720 0.000000 0.000000 0.000000 
